<svg width="33" height="32" viewBox="0 0 33 32" fill="none" xmlns="http://www.w3.org/2000/svg">
<g id="ph:google-logo">
<path id="Vector" d="M16.5004 28C14.5274 27.9993 12.5849 27.512 10.845 26.5814C9.10521 25.6508 7.62168 24.3055 6.52584 22.6647C5.42999 21.0239 4.75565 19.1382 4.56251 17.1746C4.36938 15.211 4.66341 13.2301 5.41858 11.4072C6.17375 9.58434 7.36675 7.97582 8.89194 6.72406C10.4171 5.47231 12.2274 4.61595 14.1626 4.23082C16.0977 3.84569 18.098 3.94367 19.9862 4.51608C21.8744 5.08849 23.5924 6.11768 24.9879 7.5125C25.175 7.69997 25.28 7.95395 25.28 8.21875C25.28 8.48355 25.175 8.73753 24.9879 8.925C24.896 9.01911 24.7861 9.09389 24.6648 9.14495C24.5436 9.19601 24.4133 9.22231 24.2817 9.22231C24.1501 9.22231 24.0198 9.19601 23.8986 9.14495C23.7773 9.09389 23.6674 9.01911 23.5754 8.925C21.9707 7.31883 19.8671 6.30658 17.6107 6.0547C15.3542 5.80281 13.0792 6.3263 11.1598 7.53907C9.24036 8.75184 7.79077 10.5817 7.0494 12.7277C6.30803 14.8737 6.31903 17.2082 7.08057 19.3471C7.84211 21.486 9.30887 23.3022 11.2396 24.4968C13.1704 25.6914 15.4502 26.1935 17.7042 25.9204C19.9582 25.6472 22.0521 24.6152 23.6417 22.994C25.2313 21.3728 26.2218 19.2589 26.4504 17H16.5004C16.2352 17 15.9809 16.8946 15.7933 16.7071C15.6058 16.5196 15.5004 16.2652 15.5004 16C15.5004 15.7348 15.6058 15.4804 15.7933 15.2929C15.9809 15.1054 16.2352 15 16.5004 15H27.5004C27.7657 15 28.02 15.1054 28.2076 15.2929C28.3951 15.4804 28.5004 15.7348 28.5004 16C28.4938 19.1806 27.2274 22.229 24.9784 24.478C22.7294 26.727 19.681 27.9934 16.5004 28Z" fill="#266294"/>
</g>
</svg>
